<?xml version="1.0" encoding="utf-8"?>
<!-- Generator: Adobe Illustrator 21.0.0, SVG Export Plug-In . SVG Version: 6.00 Build 0)  -->
<svg version="1.1" id="图层_1" xmlns="http://www.w3.org/2000/svg" xmlns:xlink="http://www.w3.org/1999/xlink" x="0px" y="0px"
	 viewBox="0 0 1000 1000" style="enable-background:new 0 0 1000 1000;" xml:space="preserve">
<g>
	<path d="M578.3,575.8c-18.2-29.3-36.7-57.3-53.5-86.3c-24.3-41.8-42.1-86.2-49.6-134.4c-25.5-162.8,81.3-264,193.4-290.7
		C745.1,46.2,818.9,53.8,887.9,94c20.3,11.9,39.2,26.7,54.1,45c2.5,2.6,3.1,3.1,4.8,5.1c9.8,11,15.2,14.4,8.8,27
		c-3.3,6.5-7.4,12.7-11.6,18.8c-36.6,53.4-73.2,106.7-110.1,160c-2.8,4-1.9,6.4,0.6,9.9C874.3,414.6,914,469.6,949,527.8
		c24.7,41.2,41.9,85.2,48.6,133.1c12.7,90.3-22.9,197-130.7,248.9c-81.7,39.3-166.6,46.6-253.1,17.2c-53.4-18.2-97.1-51.7-131.4-96
		c-26.2-33.8-48.8-70.3-73.7-105.1C273.8,537,138.7,348.4,3.7,159.7c-1.5-2.1-2.9-4.2-3.7-7c2.1,1.3,4.3,2.6,6.3,4
		c70,46.9,140,93.7,209.9,140.7c3.8,2.6,7.3,6.1,10,9.9C312.7,431.5,399,555.8,485.4,680.1c1.7,2.5,3.5,4.9,5.9,8.3
		C520.8,650.3,549.7,612.9,578.3,575.8z M519,810.8c1.7,2.1,3.1,4,4.6,5.8c27.6,30.7,60,54.7,98,70.9c30.2,12.9,61.5,19.8,94.5,15.3
		c29.1-4,42.6-22.4,38.8-51.5c-2.9-21.5-11.4-40.7-22.9-58.6c-13.7-21.4-28-42.5-42.6-63.3c-19.2-27.2-38.9-54-58.9-81.7
		C593.1,702.4,556.1,756.5,519,810.8z M903.3,156.6c0.1,0.2,0-0.3-0.3-0.6c-1.5-1.5-3-3.1-4.6-4.5c-25.7-23.2-55.4-39.1-88.5-48.9
		c-20.2-6-40.8-9.5-61.9-5.7c-26.6,4.8-42.6,25.3-39.7,52c1.1,10,3.5,20.2,7.1,29.7c16.9,44.3,46.1,81.2,73.4,119.4
		C827.2,250.6,865.2,203.7,903.3,156.6z"/>
</g>
</svg>
